<svg width="100%" viewBox="0 0 680 360" xmlns="http://www.w3.org/2000/svg">
  <rect width="680" height="360" fill="#0a0a0a" rx="12"/>
  <line x1="0" y1="60" x2="680" y2="60" stroke="#1a1a1a" stroke-width="1"/>
  <line x1="0" y1="120" x2="680" y2="120" stroke="#1a1a1a" stroke-width="1"/>
  <line x1="0" y1="180" x2="680" y2="180" stroke="#1a1a1a" stroke-width="1"/>
  <line x1="0" y1="240" x2="680" y2="240" stroke="#1a1a1a" stroke-width="1"/>
  <line x1="0" y1="300" x2="680" y2="300" stroke="#1a1a1a" stroke-width="1"/>
  <line x1="68" y1="0" x2="68" y2="360" stroke="#1a1a1a" stroke-width="1"/>
  <line x1="136" y1="0" x2="136" y2="360" stroke="#1a1a1a" stroke-width="1"/>
  <line x1="204" y1="0" x2="204" y2="360" stroke="#1a1a1a" stroke-width="1"/>
  <line x1="272" y1="0" x2="272" y2="360" stroke="#1a1a1a" stroke-width="1"/>
  <line x1="340" y1="0" x2="340" y2="360" stroke="#1a1a1a" stroke-width="1"/>
  <line x1="408" y1="0" x2="408" y2="360" stroke="#1a1a1a" stroke-width="1"/>
  <line x1="476" y1="0" x2="476" y2="360" stroke="#1a1a1a" stroke-width="1"/>
  <line x1="544" y1="0" x2="544" y2="360" stroke="#1a1a1a" stroke-width="1"/>
  <line x1="612" y1="0" x2="612" y2="360" stroke="#1a1a1a" stroke-width="1"/>
  <line x1="120" y1="108" x2="290" y2="170" fill="none" stroke="#ff4444" stroke-width="1" stroke-dasharray="4 3" opacity="0.4"/>
  <line x1="560" y1="108" x2="390" y2="170" fill="none" stroke="#ff4444" stroke-width="1" stroke-dasharray="4 3" opacity="0.4"/>
  <line x1="160" y1="262" x2="295" y2="210" fill="none" stroke="#ff4444" stroke-width="1" stroke-dasharray="4 3" opacity="0.3"/>
  <line x1="520" y1="262" x2="385" y2="210" fill="none" stroke="#ff4444" stroke-width="1" stroke-dasharray="4 3" opacity="0.3"/>
  <line x1="108" y1="186" x2="220" y2="180" fill="none" stroke="#444" stroke-width="1" stroke-dasharray="4 3" opacity="0.5"/>
  <line x1="572" y1="186" x2="460" y2="180" fill="none" stroke="#444" stroke-width="1" stroke-dasharray="4 3" opacity="0.5"/>
  <line x1="340" y1="136" x2="340" y2="160" fill="none" stroke="#00b4c8" stroke-width="1.5" opacity="0.5"/>
  <line x1="300" y1="180" x2="308" y2="180" fill="none" stroke="#00b4c8" stroke-width="1.5" opacity="0.5"/>
  <line x1="372" y1="180" x2="380" y2="180" fill="none" stroke="#00b4c8" stroke-width="1.5" opacity="0.5"/>
  <rect x="76" y="52" width="88" height="56" rx="6" fill="#150a0a" stroke="#ff4444" stroke-width="1.5"/>
  <text x="120" y="73" text-anchor="middle" font-family="'DM Sans',sans-serif" font-size="10" font-weight="700" letter-spacing="1.5" fill="#ff4444">SQL</text>
  <text x="120" y="88" text-anchor="middle" font-family="'DM Sans',sans-serif" font-size="10" font-weight="700" letter-spacing="1.5" fill="#ff4444">INJECTION</text>
  <circle cx="120" cy="108" r="3" fill="#ff4444" opacity="0.6"/>
  <rect x="504" y="52" width="112" height="56" rx="6" fill="#150a0a" stroke="#ff4444" stroke-width="1.5"/>
  <text x="560" y="73" text-anchor="middle" font-family="'DM Sans',sans-serif" font-size="10" font-weight="700" letter-spacing="1.5" fill="#ff4444">PROMPT</text>
  <text x="560" y="88" text-anchor="middle" font-family="'DM Sans',sans-serif" font-size="10" font-weight="700" letter-spacing="1.5" fill="#ff4444">INJECTION</text>
  <circle cx="560" cy="108" r="3" fill="#ff4444" opacity="0.6"/>
  <rect x="96" y="262" width="128" height="46" rx="6" fill="#150a0a" stroke="#ff6644" stroke-width="1.5"/>
  <text x="160" y="279" text-anchor="middle" font-family="'DM Sans',sans-serif" font-size="10" font-weight="700" letter-spacing="1.5" fill="#ff6644">DATA</text>
  <text x="160" y="294" text-anchor="middle" font-family="'DM Sans',sans-serif" font-size="10" font-weight="700" letter-spacing="1.5" fill="#ff6644">POISONING</text>
  <rect x="456" y="262" width="128" height="46" rx="6" fill="#150a0a" stroke="#ff6644" stroke-width="1.5"/>
  <text x="520" y="279" text-anchor="middle" font-family="'DM Sans',sans-serif" font-size="10" font-weight="700" letter-spacing="1.5" fill="#ff6644">SUPPLY</text>
  <text x="520" y="294" text-anchor="middle" font-family="'DM Sans',sans-serif" font-size="10" font-weight="700" letter-spacing="1.5" fill="#ff6644">CHAIN</text>
  <rect x="36" y="168" width="72" height="36" rx="4" fill="#111" stroke="#333" stroke-width="1"/>
  <text x="72" y="181" text-anchor="middle" font-family="'DM Sans',sans-serif" font-size="9" font-weight="700" letter-spacing="1" fill="#555">USER</text>
  <text x="72" y="194" text-anchor="middle" font-family="'DM Sans',sans-serif" font-size="9" font-weight="700" letter-spacing="1" fill="#555">INPUT</text>
  <rect x="572" y="168" width="72" height="36" rx="4" fill="#111" stroke="#333" stroke-width="1"/>
  <text x="608" y="181" text-anchor="middle" font-family="'DM Sans',sans-serif" font-size="9" font-weight="700" letter-spacing="1" fill="#555">EXT</text>
  <text x="608" y="194" text-anchor="middle" font-family="'DM Sans',sans-serif" font-size="9" font-weight="700" letter-spacing="1" fill="#555">API</text>
  <rect x="290" y="96" width="100" height="40" rx="4" fill="#0a1a1c" stroke="#00b4c8" stroke-width="1.5"/>
  <text x="340" y="112" text-anchor="middle" font-family="'DM Sans',sans-serif" font-size="9" font-weight="700" letter-spacing="1" fill="#00b4c8">ACCESS</text>
  <text x="340" y="125" text-anchor="middle" font-family="'DM Sans',sans-serif" font-size="9" font-weight="700" letter-spacing="1" fill="#00b4c8">CONTROL</text>
  <rect x="220" y="160" width="80" height="40" rx="4" fill="#0a1a1c" stroke="#00b4c8" stroke-width="1.5"/>
  <text x="260" y="176" text-anchor="middle" font-family="'DM Sans',sans-serif" font-size="9" font-weight="700" letter-spacing="1" fill="#00b4c8">INPUT</text>
  <text x="260" y="189" text-anchor="middle" font-family="'DM Sans',sans-serif" font-size="9" font-weight="700" letter-spacing="1" fill="#00b4c8">FILTER</text>
  <rect x="380" y="160" width="80" height="40" rx="4" fill="#0a1a1c" stroke="#00b4c8" stroke-width="1.5"/>
  <text x="420" y="176" text-anchor="middle" font-family="'DM Sans',sans-serif" font-size="9" font-weight="700" letter-spacing="1" fill="#00b4c8">OUTPUT</text>
  <text x="420" y="189" text-anchor="middle" font-family="'DM Sans',sans-serif" font-size="9" font-weight="700" letter-spacing="1" fill="#00b4c8">FILTER</text>
  <circle cx="340" cy="200" r="42" fill="#0a0a0a" stroke="#222" stroke-width="1"/>
  <circle cx="340" cy="200" r="36" fill="#0d1a1c" stroke="#00b4c8" stroke-width="2"/>
  <circle cx="340" cy="200" r="27" fill="#0a1416" stroke="#00b4c8" stroke-width="1" stroke-dasharray="3 2"/>
  <rect x="329" y="185" width="22" height="18" rx="3" fill="none" stroke="#00b4c8" stroke-width="1.5"/>
  <path d="M333 185 L333 181 Q333 176 340 176 Q347 176 347 181 L347 185" fill="none" stroke="#00b4c8" stroke-width="1.5"/>
  <circle cx="340" cy="195" r="2.5" fill="#00b4c8"/>
  <line x1="340" y1="197" x2="340" y2="200" stroke="#00b4c8" stroke-width="1.5"/>
  <text x="340" y="222" text-anchor="middle" font-family="'DM Sans',sans-serif" font-size="10" font-weight="700" letter-spacing="2" fill="#00b4c8">AI CORE</text>
  <rect x="0" y="0" width="680" height="360" fill="none" rx="12" stroke="#1a1a1a" stroke-width="1"/>
  <text x="640" y="344" text-anchor="end" font-family="'DM Sans',sans-serif" font-size="10" fill="#2a2a2a">stafferton.digital</text>
</svg>
